<?xml version="1.0" encoding="utf-8"?>
<!-- Generator: Adobe Illustrator 23.0.1, SVG Export Plug-In . SVG Version: 6.00 Build 0)  -->
<svg version="1.1" xmlns="http://www.w3.org/2000/svg" xmlns:xlink="http://www.w3.org/1999/xlink" x="0px" y="0px"
	 viewBox="0 0 800 600" style="enable-background:new 0 0 800 600;" xml:space="preserve">
<style type="text/css">
	.st0{fill:#808080;stroke:#FFFFFF;stroke-width:0.5;stroke-linecap:round;stroke-linejoin:round;}
	.st1{font-family:'Roboto-Regular';}
	.st2{font-size:14px;}
</style>
<g id="Kenya">
	<path class="st0" d="M181.199,75.188l5.616-5.58l5.61-5.576l5.61-5.581l5.616-5.579l4.361-2.255l3.86-1.996l3.834-1.923
		l3.785-1.899l5.406-1.973l4.509-1.702l4.227-1.596l4.55-1.718l5.088-1.921l4.55-1.718l3.863-1.459l0.983,1.85l3.897-2.16
		L260.898,30l1.229,1.48l-2.089,4.317h5.529l4.178,1.233l-2.703,6.906l2.246,4.088l2.669,4.856l0.083,0.029l4.902,1.694l0.305-1.691
		l0.005-0.029l0.31-2.321l1.549-1.088l2.169,0.156l0.155,3.256l4.184,0.018l3.572,0.015l0.109,0.962l0.735,1.312l0.057,1.074
		l-0.167,1.118l-0.017,0.949l0.373,0.788l0.993,0.624l2.153,1.889l1.183,0.77l1.275,0.304l0.221-0.002l0.009,65.475l0.436,1.39
		l0.356,0.191l0.29,0.246l0.416,0.246l1.898,0.794l1.332-0.203l0.686,0.013l0.293,0.362l-0.121,0.597l-0.517,1.132l-0.121,0.552
		l0.098,0.638l0.482,1.166l0.178,0.647l0.003,0.648l-1.522,6.035l0.336,1.136l0.847,0.302l2.231-0.073l0.428,0.233l0.721,0.746
		l0.577,0.16l0.56-0.233l0.919-0.819l0.419,0.086l0.224,0.44l0.362,1.666l0.19,0.233l2.291,2.004l3.066,2.007l1.28,1.11l1.085,1.83
		l0.566,1.235l0.399,1.526l0.755,1.252l0.264,0.614l0.052,0.379l-0.017,3.844l0.379,1.321l1.866,1.053l0.965,1.135l1.306,2.209
		l0.448,2.288l-0.003,2.562l0.336,2.322l1.461,1.562l0.35-0.355l0.416-0.233l0.528-0.129l0.672-0.043l0.198,0.069l1.37,0.207
		l0.327-0.069l0.448-0.25l3.058-3.236l0.637-1.066l0.327-1.229l-0.652-1.65l0.64-0.22l0.68,0.004l0.689,0.164l0.396,0.407
		l0.327,0.686l4.502,12.757l0.448,0.734l3.233,2.839l0.465,0.715l0.319,0.646l2.423,6.403l0.448,1.82l-0.181,1.518l0.078,0.224
		l0.224,0.078l0.301,0.009l1.605-0.172l2.578-0.047l5.489,0.491l0.614,0.16l1.025,0.475l0.293,0.198l0.637,0.728l0.121,0.246
		l0.198,0.531l0.121,0.25l0.146,0.228l0.172,0.211l0.83,0.643l0.724,0.457l0.844,0.672l0.379,0.383l0.657,0.85l1.318,2.414
		l0.922,2.433l0.146,0.263l0.37,0.389l0.658,0.483l2.248,1.169l0.207,0.159l0.172,0.168l0.132,0.233l0.103,0.327l0.534,3.822
		l0.189,0.551l0.284,0.47l1.421,1.587l2.329,1.837l0.37,0.385l0.62,0.883l3.761,8.905l0.164,0.211l0.181,0.19l0.232,0.151
		l0.276,0.112l0.319,0.052l0.336,0.009l0.31-0.052l0.293-0.078l0.769-0.349l0.577-0.172l1.619-0.215l0.58-0.159l0.264-0.103
		l0.477-0.284l0.207-0.161l0.465-0.271l0.276-0.086l0.301-0.022l0.956,0.138l0.658-0.047l0.293-0.077l0.999-0.513l0.853-0.569
		l0.25-0.109l0.284-0.073l0.322-0.039h0.327l0.947,0.144l0.319-0.019l0.302-0.073l0.241-0.125l0.224-0.151l0.778-0.728l0.431-0.271
		l0.276-0.121l0.112-0.023l0.215-0.026h0.215l0.155,0.035l0.103,0.04l0.103,0.095l0.448,0.517l3.017,2.803l0.689,0.814l0.284,0.85
		l0.563,7.511l0.267,0.948l0.646,0.962l3.388,3.926l0.586,0.864l0.276,0.867l1.191,19.029l-0.078,0.178l-0.258-0.031l-0.907-0.256
		l-0.81-0.319l-0.284-0.052l-0.301,0.009l-0.491,0.098l-0.198,0.124l-0.25,0.198l-0.382,0.488l-0.956,0.976l-0.853,0.701
		l-2.199,1.246l-0.37,0.034l-0.31-0.063l-0.215-0.143l-0.482-0.264l-0.353-0.014l-0.405,0.072l-1.045,0.615l-0.336,0.25l-0.25,0.261
		l-0.431,0.827l-0.233,0.31l-0.276,0.218l-0.52,0.23l-1.318,0.419l-0.336,0.034l-0.336-0.012l-0.637-0.098l-0.692-0.034
		l-0.336,0.034l-0.439,0.146l-1.318,0.749l-0.457,0.098l-0.373-0.029l-0.25-0.129l-0.267-0.103l-0.31,0.055l-0.293,0.201
		l-0.362,0.485l-0.353,0.35l-0.594,0.396l-0.735,0.359l-0.353,0.241l-1.137,1.08l-0.775,0.58l-1.105,0.448l-0.293,0.172
		l-0.267,0.241l-0.284,0.471l-0.181,0.21l-0.241,0.032l-0.646-0.445l-0.25-0.106l-0.37,0.02l-1.011,0.307l-0.388,0.011l-0.353-0.034
		l-0.491-0.189l-0.172-0.109l-0.525-0.414l-0.465-0.287l-0.253-0.092l-0.284-0.02l-0.319,0.035l-0.293,0.072l-0.861,0.316
		l-2.216,0.454l-0.31-0.017l-0.577-0.144l-0.525-0.232l-0.215-0.158l-0.37-0.402l-0.339-0.445l-0.379-0.359l-0.181-0.195
		l-0.103-0.287l-0.155-1.016l-0.121-0.267l-0.276-0.491l-0.491-0.649l-0.491-1.034l-1.717-2.498l-0.181-0.204l-0.198-0.187
		l-0.922-0.609l-0.752-0.758l-0.224-0.155l-0.25-0.115l-0.276-0.052l-0.284,0.012l-0.267,0.092l-0.233,0.143l-0.603,0.546
		l-0.241,0.155l-0.293,0.075l-0.666-0.023l-0.646-0.078l-0.258-0.077l-0.233-0.126l-0.207-0.149l-0.319-0.281l-0.276-0.33
		l-0.19-0.161l-0.967-0.123l-0.577-0.184l-0.241-0.121l-0.68-0.442l-0.267-0.103l-0.284-0.057l-0.474-0.02l-0.632,0.037l-0.31,0.075
		l-0.276,0.129l-0.525,0.327l-0.353,0.169l-1.249,0.385l-4.157,0.861l-0.345,0.011l-0.336-0.026l-0.629-0.106l-0.319,0.003
		l-0.284,0.155l-0.218,0.279l-0.224,1.016l-0.023,0.83l0.121,1.186l-0.029,0.442l-0.069,0.35l-0.164,0.212l-0.379,0.385l-0.164,0.23
		l-0.112,0.276l-0.121,0.626l-0.138,0.235l-0.534,0.609l-0.146,0.235l-0.345,0.413l-0.856,0.663l-0.138,0.238l-0.078,0.296
		l-0.009,0.316l0.086,0.284l0.241,0.164l0.649,0.19l25.113,3.224l0.586,0.167l0.258,0.356l0.138,0.339l0.06,0.31l0.077,0.755
		l-0.06,2.794l0.121,0.62l0.422,1.134l0.284,0.474l0.184,0.204l0.637,0.881l0.138,0.253l0.672,1.654l0.069,0.31l0.026,0.344
		l-0.112,1.361l-0.172,0.606l-0.19,0.336l-0.758,0.959l-0.241,0.385l-0.158,0.359l-0.069,0.301l-0.198,2.423l-0.069,0.325
		l-0.129,0.293l-5.756,5.975l-0.416,0.345l-1.972,1.306l-5.32,1.875l-1.648,0.836l-1.938,3.353l-0.698,0.97l-1.467,1.372
		l-0.301,0.477l-0.172,0.422l0.035,0.698l0.069,0.299l0.103,0.273l1.318,2.093l0.069,0.494l-0.207,2.214l-0.146,0.729l-0.155,0.54
		l-0.155,0.233l-0.172,0.192l-0.922,0.847l-0.448,0.551l-0.207,0.339l-0.666,0.856l-0.439,0.431l-0.336,0.132l-0.336,0.006
		l-0.276-0.103l-0.732-0.367l-0.233-0.017l-0.224,0.143l-0.276,0.276l-0.267,0.207l-0.347,0.155l-0.232-0.006l-0.164-0.029
		l-0.19-0.083l-0.68-0.439l-0.586-0.534l-2.225-2.742l-0.129-0.258l-0.293-0.85l-0.017-0.224l0.121-0.132l0.448-0.224l0.198-0.181
		l0.155-0.212l0.112-0.232l0.12-0.388l0.19-1.123v-0.683l0.112-0.324l-0.034-0.098l-0.215-0.115l-2.63-0.93l-0.491-0.063
		l-0.663,0.078l-3.991,0.988l-2.604,0.37l-0.991-0.29l-2.518-0.172l-0.933-0.155l-0.749-0.517l-1.697-1.522l-0.138-0.247
		l-0.095-0.279l-0.138-0.623l-0.017-0.322l0.06-0.316l0.112-0.278l0.146-0.238l0.284-0.345l0.431-0.327l4.889-2.98l0.181-0.141
		l0.069-0.146l0.017-0.23l-0.121-0.253l-0.284-0.238l-0.296-0.043l-0.276,0.06l-0.792,0.465l-0.37,0.169l-0.577,0.195l-0.353-0.04
		l-0.267-0.126l-1.278-1.404l-0.362-0.212l-0.517-0.227l-1.085-0.316l-0.485-0.276l-0.267-0.333l-0.224-0.904l-0.12-0.279
		l-0.172-0.224l-1.352-1.364l-0.267-0.204l-0.396-0.212l-0.261,0.057l-0.181,0.172l-0.181,0.569l-0.121,0.261l-0.207,0.172
		l-2.914,1.783l-0.508,0.161l-0.913,0.155l-1.243-0.08l-0.637,0.052l-0.336,0.149l-0.129,0.247l-0.155,0.551l-0.146,0.241
		l-0.19,0.146l-2.268,0.91l-0.525,0.322l-0.741,0.686l-0.276,0.531l-0.735,2.254l-0.129,0.261l-0.81,1.332l-0.25,1.074l-0.164,0.388
		l-0.189,0.686l-0.164,1.341l0.112,2.819l-0.103,0.629l-0.586,1.596l-0.086,0.347l-0.034,0.362l0.052,0.703l0.112,0.652l0.189,0.586
		l2.75,6.035l0.155,0.123l0.147,0.092l0.233,0.095l0.276,0.078l0.327,0.034l0.655-0.083l1.226-0.31l0.31-0.034l0.293,0.006
		l0.215,0.12l0.155,0.215l0.112,0.264l0.138,0.21l0.181,0.152l0.258,0.003l1.665-0.322h0.215l0.19,0.095l0.146,0.198l0.112,0.258
		l0.25,0.879l0.026,0.327l-0.112,0.758l-0.129,0.52l-0.078,0.818l0.431,2.682l0.043,1.447l0.146,0.62l0.224,0.557l0.198,0.904
		l0.086,0.23l0.121,0.072l0.146,0.006l1.148-0.221l0.698-0.072l0.68-0.006l0.267,0.078l0.215,0.155l0.155,0.244l0.25,0.525
		l0.198,0.181l0.235,0.138l0.543,0.227l0.534,0.164l0.241,0.04l0.181,0.055l0.215,0.095l0.112,0.253l0.362,1.668l0.086,1.062
		l0.718,3.127l0.006,0.436l-0.069,0.534l-0.474,1.456l-0.06,0.474l0.414,2.286l1.932,5.289l0.06,0.259l0.009,0.29l-0.112,0.973
		l0.009,0.402l0.06,0.284l0.396,1.171l0.138,0.256l0.77,1.014l0.04,0.115l0.011,0.095l-0.017,0.178l-0.399,1.395l-0.086,0.996
		l0.034,0.342l0.353,1.645l0.029,0.431l-0.069,0.6l-0.149,0.336l-0.241,0.204l-0.267,0.089l-0.319,0.06l-1.008-0.009l-0.284,0.06
		l-0.172,0.233l-2.113,6.226l0.095,0.744l0.284,0.399l6.5,0.976l0.37,0.103l0.233,0.124l0.847,0.62l0.939,0.546l0.465,0.207
		l1.855,1.223l0.577,0.612l0.431,0.781l0.517,0.729l0.5,0.439l0.56,0.379l1.751,0.724l0.293,0.06l0.31,0.035l1.51-0.089l0.594,0.112
		l0.353,0.132l0.586,0.411l0.907,0.844l-0.413,1.936l0.126,0.345l0.261,0.391l0.327,0.089l0.327-0.012l0.293-0.075l1.812-0.85
		l0.525-0.06l0.68,0.026l1.481,0.302l0.511,0.198l0.19,0.348l-0.339,1.275l-0.508,1.198l-0.034,0.135l-0.034,0.276l0.172,0.617
		l0.353,0.942l1.329,2.335l8.18,9.763l0.787,1.195l-0.528,1.939l0.012,0.606l0.086,0.666l0.637,1.471l0.043,0.25l0.327,0.936
		l0.586,1.229l0.508,0.652l0.56,0.457l1.183,0.373l0.887,0.451l1.079,0.81l2.42,2.419l2.707,0.445l1.553,0.54l3.095,1.577
		l1.516,0.982l1.034,0.856l1.252,0.83l0.267,0.118l1.137,0.31l0.362,0.19l3.468,2.744l1.645,0.586l0.336,0.034l0.689-0.052
		l0.672-0.121l0.416-0.026l0.749,0.161l0.827,0.356l1.278,0.813l0.362,0.431l0.086,0.244l-0.207,0.086l-0.985,0.239l-0.474,0.198
		l-0.25,0.147l-0.224,0.158l-0.198,0.187l-0.164,0.207l-0.121,0.241l-0.086,0.29l-0.517,2.885l-0.095,0.267l-0.276,0.497
		l-0.198,0.204l-0.235,0.138l-0.284,0.095l-0.947,0.218l-0.276,0.112l-0.241,0.138l-0.224,0.161l-0.577,0.543l-0.362,0.411
		l-0.115,0.296l-0.023,0.371l0.155,0.598l0.233,0.396l16.465,19.011l0.56,1.362l0.629,2.874l-3.75,12.801l-0.879,7.961l-0.207,0.658
		l-0.362,0.497l-0.89,0.069l-0.534-0.009l-0.474-0.052l-5.113,0.696l-1.011,0.31l-0.12-0.733l-0.982-6.032l-0.85-1.369l-4.588-2.564
		l-7.671-4.29l-4.255-2.38l-11.932-6.669l-11.926-6.663l-11.926-6.668l-11.926-6.661l-11.932-6.661l-11.921-6.666l-11.926-6.665
		l-11.926-6.665l-11.921-6.664l-9.405-5.251l-2.521-1.408l-11.932-6.664l-11.926-6.657l-2.926-1.634l-0.086-0.755l-2.059-9.25
		l-0.391-0.974l-0.818-1.422l-1.326-0.962l-0.25-0.376l-0.649-2.676l-0.801-1.065l-0.301-0.663l-0.164-0.526l-0.06-0.626
		l-0.121-0.368l-0.982-1.645l-0.129-0.548l0.043-0.508l0.164-0.258l0.172-0.172l0.913-0.706l0.991-0.531l1.14-0.758l0.267-0.112
		l0.293-0.069l0.293,0.037l0.258,0.1l0.241,0.124l0.293,0.066l2.053,0.172l0.413-0.043l14.863-4.253l0.637-0.253l0.405-0.256
		l0.233-0.474l0.293-1.034l0.672-1.674l0.623-0.623l0.715-0.563l0.741-0.451l0.629-0.497l0.434-0.508l-0.029-0.672l-0.178-0.727
		l-1.114-3.081l-0.121-0.646l-0.017-0.689l0.353-0.882l0.095-1.593l-0.655-5.992l-0.052-0.224l-0.095-0.212l-0.405-0.634
		l-0.069-0.175l-0.034-0.109l-0.146-0.804l-0.009-0.29l0.224-1.866l-0.052-0.324l-0.095-0.278l-0.904-1.364l-0.106-0.235
		l-0.172-0.603l-0.362-0.807l-0.077-0.247l-0.052-0.319l-0.026-0.568l0.086-0.566l0.069-0.155l0.482-0.663l0.192-0.187l0.646-0.52
		l0.224-0.233l0.491-0.726l0.112-0.37l0.052-0.347l-0.017-0.319l0.155-0.936l0.086-2.492l0.095-0.436l0.129-0.336l0.172-0.218
		l0.224-0.169l0.25-0.132l0.551-0.218l0.244-0.141l0.525-0.583l1.292-2.46l0.379-0.525l0.344-0.212l0.201,0.143l0.172,0.19
		l0.422,0.732l0.172,0.224l0.19,0.195l0.655,0.459l0.612,0.528l0.258,0.138l0.276,0.077l0.293,0.012l0.258-0.086l0.485-0.241
		l0.276-0.057l0.284,0.032l0.25,0.109l0.207,0.175l0.181,0.221l0.327,0.818l0.146,0.218l0.189,0.204l0.233,0.152l0.304,0.086
		l0.663,0.072l0.284,0.086l0.207,0.169l0.138,0.233l0.189,0.594l0.121,0.273l0.164,0.215l0.388,0.347l0.233,0.152l0.25,0.12
		l0.284,0.098l0.301,0.057l0.365,0.026l0.379-0.026l0.439-0.138l0.224-0.25l0.129-0.29l0.267-1.84l0.017-0.33l-0.052-0.511
		l-0.103-0.258l-0.164-0.235l-0.172-0.204l-2.518-2.001l-0.155-0.27l-0.077-0.37v-0.672l-0.164-0.316l-0.224-0.224l-1.085-0.436
		l-0.241-0.141l-0.21-0.172l-0.181-0.207l-0.25-1.659l-0.207-0.574l-0.138-0.255l-0.344-0.413l-0.224-0.146l-0.258-0.106
		l-0.258-0.066l-0.241-0.02l-0.164,0.026l-0.207,0.106l-0.459,0.284l-0.267,0.126l-0.293,0.06l-0.31-0.023l-0.284-0.086l-0.25-0.115
		l-0.93-0.583l-0.818-0.31l-0.614-0.138l-0.336-0.023l-0.327,0.04l-0.276,0.103l-0.224,0.155l-0.155,0.207l-0.138,0.241l-0.379,0.79
		l-0.172,0.201l-0.244,0.147l-0.258,0.12l-0.568,0.201l-0.293,0.052l-0.293-0.043l-0.267-0.1l-0.241-0.138l-0.62-0.488l-0.241-0.098
		l-0.244-0.009l-0.258-0.049l-0.215-0.115l-0.543-0.586l-0.224-0.155l-0.258-0.109l-0.327-0.009l-0.327,0.026l-0.327,0.063
		l-0.276,0.109l-0.723,0.439l-0.27,0.121l-0.62,0.155l-0.344,0.026l-2.63-0.319l-1.473,0.014l-1.054,0.115h-0.723l-0.62-0.112
		l-0.258-0.106l-0.241-0.135l-0.422-0.336l-0.787-0.746l-0.224-0.155l-0.276-0.112l-0.284-0.072l-0.276-0.014l-0.431,0.04
		l0.922-1.381l2.346-2.369l1.051-1.286l0.413-1.234l0.391-0.864l0.267-0.434l0.241-0.281l0.612-0.574l1.614-1.252l0.568-0.672
		l0.207-0.557l0.482-1.921l0.465-1.082l0.146-0.525l0.017-0.431l-0.112-0.25l-0.146-0.255l-0.233-0.525l-0.258-0.893l-0.052-0.689
		l0.482-3.615v-0.342l-0.06-0.313l-0.56-1.731l-0.189-0.982l-0.741-1.579l-0.149-0.224l-0.19-0.19l-0.215-0.155l-2.3-1.103
		l-0.632-0.402l-0.086-0.405l0.121-2.383l0.164-0.747l0.215-0.477l0.735-0.416l0.284-0.101l0.301-0.072l0.336-0.043l0.319,0.029
		l0.301,0.08l0.767,0.391l0.276,0.08l0.322,0.034l0.327-0.031l0.37-0.215l0.413-0.373l1.398-2.145l0.23-0.224l0.227-0.141
		l0.215-0.075l0.129-0.017l0.164,0.012l0.723,0.178l0.319,0.029l0.301-0.006l0.181-0.034l0.215-0.069l0.967-0.52l0.603-0.147
		l0.344-0.009l0.31,0.034l0.293,0.083l0.5,0.253l0.276,0.095l0.649,0.057l0.284-0.032l0.189-0.06l0.181-0.078l1.016-0.683
		l0.388-0.356l0.207-0.362l0.301-0.999l0.192-0.304l0.224-0.221l1.283-0.686l0.241-0.172l0.431-0.396l0.207-0.327l0.138-0.385
		l0.026-0.388l-0.043-0.508l-0.112-0.342l-0.164-0.256l-0.344-0.356l-0.086-0.207l-0.043-0.19l0.017-1.392l-0.086-0.876
		l-0.138-0.293l-0.991-1.338l-0.284-0.778l-0.086-0.172l-0.115-0.155l-0.144-0.146l-0.158-0.1l-0.379-0.198l-1.077-0.388
		l-0.594-0.152l-0.276-0.103l-0.52-0.261l-0.456-0.29l-0.276-0.098l-0.301-0.06l-3.19-0.106l-1.74,0.21l-0.301,0.083l-0.279,0.115
		l-0.233,0.147l-0.198,0.175l-0.189,0.195l-0.973,1.309l-0.198,0.172l-0.258,0.115l-0.301,0.011l-0.287-0.075l-0.281-0.121
		l-0.287-0.086l-0.319-0.017l-0.319,0.04l-1.542,0.356l-1.174,0.396l-2.041,0.244l-0.319-0.049l-0.304-0.078l-0.258-0.106
		l-0.474-0.281l-0.241-0.267l-0.215-0.359l-0.241-0.681l-0.034-0.534l0.026-0.537l0.103-0.666l-0.069-0.373l-0.155-0.264
		l-0.241-0.132l-0.293-0.069l-0.336-0.046l-0.31-0.075l-0.27-0.098l-0.267-0.189l-5.699-5.978l-1.025-1.556l-0.077-1.031
		l-1.602-1.419l-0.49-0.565l0.283-0.483l0.092-1.252l0.379-1.016l2.693-0.615l1.895-1.821l1.154-0.706l4.571-0.468l1.769-0.801
		l0.701-2.257l-0.58-2.211l-0.965-2.26l-0.109-1.044l-0.097-0.931l3.302-2.702l1.171-4.488l1.281-1.907l0.557-0.28l1.166-0.238
		l0.551-0.253l0.569-0.533l0.402-0.63l1.763-3.735l0.333-1.206l0.057-10.803l0.241-0.676l1.039-1.316l0.207-0.596l-0.281-0.619
		l-1.303-1.218l-0.488-0.577l-0.396-0.974l-0.23-1.113l-0.069-1.149l0.086-1.082l0.523-2.479l-0.006-1.076l-2.509-6.049
		l-1.003-2.421l-2.149-5.185l-0.362-2.184l0.488-1.373l1.005-0.776l1.12-0.638l0.821-0.986l0.149-1.262l-0.511-0.948l-1.516-1.558
		l-0.322-1.061l-0.316-2.768l-0.557-0.759l-0.505,0.078l-0.368,0.463l-0.448,0.411l-0.764-0.057l-0.523-0.512l-2.343-4.874
		l-0.844-4.832l-1.131-3.507l-0.224-0.492l-0.379-0.471l-0.293-0.072l-1.573-0.756l-0.103-0.149l-0.109-0.101l-0.092-0.193
		l-0.121-0.193l-0.212-0.101l-0.138,0.089l-0.247,0.434l-0.138,0.098l-0.23,0.112l-0.62,0.509l-0.344,0.118l-0.758-0.201
		l-0.505-0.523l-0.833-1.328l-1.763-1.963l-0.557-0.969l-1.614-8.415l-0.004-0.007l-0.651-1.167l-1.166-0.773l-2.618-0.75
		l-1.16-0.739l-0.603-1.274l-0.551-6.833l-0.718-2.22l-0.408-0.595l-0.522-0.571l-0.436-0.597l-0.144-0.666l0.167-0.63l0.557-1.363
		l0.086-0.528l-0.23-0.611l-0.683-1.192l-0.046-0.603l0.31-0.488l0.505-0.221l0.568-0.15l0.517-0.263l1.057-1.625l0.522-2.231
		l0.138-4.476l-0.373-1.171l-0.815-0.527l-1.039-0.319L204,104.534l-1.803-1.928l-0.999-0.401l-1.51,0.439l-0.58,0.544l-0.241,0.534
		l-0.258,0.233l-0.643-0.365l-0.838-2.246l-1.235-1.597l-0.034-0.272l-0.586,0.049l-1.102,0.312l-1.091,0.072l-0.959,0.247
		l-0.471,0.032l-0.706-0.268l0.368-0.43l1.108-0.709l-0.695-0.847l-0.873-0.328l-0.103-0.305l2.653-1.375l0.603-0.751l-0.144-0.761
		l-1.229-0.643l-1.079-0.006l-2.205,0.788l-0.873,0.173l-1.292-0.468l0.08-0.965l0.706-1.284l0.592-1.427l-0.138-0.899l-0.643-0.64
		l-0.815-0.545l-0.66-0.617l-0.436-0.885l0.023-0.566l0.241-0.53l0.218-0.776l0.161-1.298l-0.017-0.655l-0.172-0.646l-0.465-0.626
		l-0.62-0.569l-0.488-0.61l-0.069-0.758l0.075-1.714l-0.695-1.292l-1.252-0.986L181.199,75.188z"/>
	<path class="st0" d="M296.106,62.706l8.111-0.067l1.912-0.261l0.586-0.003l0.546,0.148l1.011,0.489l0.718,0.098l10.324-0.207
		l8.694-0.179l0.482,0.107l0.821,0.494l0.327,0.079l0.138,0.033l10.709-0.092l3.313,0.917l3.951,1.997l2.268,0.521l0.54,0.407
		l0.873,1.474l0.408,0.271l1.114-0.084l0.413,0.132l0.367,0.497l0.218,0.54l0.287,1.238l0.178,0.299l0.287,0.066l0.333-0.009
		l0.327,0.086l3.009,1.936l5.415,3.491l5.415,3.492l6.339,4.079l4.502,2.901l5.093,3.287l5.736,3.695l5.288,3.407l5.541,3.569
		l1.711,1.102l1.034,1.031l1.413,2.269l0.856,1.016l0.712,0.394l1.659,0.511l1.281,1.115l0.677,0.114l1.751-0.436l1.74-0.138
		l5.897,0.669l5.937,0.669l3.112-0.266l2.831-1.24l0.069-0.319l-0.046-0.496l0.115-0.463l0.534-0.217l0.293,0.128l1.051,0.873
		l0.448,0.531l0.109,0.44l0.218,0.326l0.775,0.196l0.724,0.08l0.304-0.042l0.787-0.308l0.103,0.186l0.057,0.299l0.293,0.193
		l3.244,0.234l-0.012-0.381l0.075-0.781l-0.023-0.368l1.504,1.985l0.867,0.883l1.016,0.558l5.484,1.484l4.14,1.122l1.447-0.023
		l2.331-0.45l0.93,0.126l0.833,0.309l0.861-0.012l3.193-0.674l0.534,0.13l0.717,0.33l5.003,2.301l2.165,0.462l2.119-0.055
		l2.153-1.241l-0.008,0.865l0.792,10.329l0.551,1.925l0.379,3.143l0.052,7.357l-0.112,0.871l-0.155,0.532l-0.189,0.19l-1.215,0.871
		l-0.267,0.315l-0.637,0.946l-0.362,0.328l-0.459,0.276l-2.819,0.907l-0.525,0.229l-0.413,0.341l-0.835,0.916l-0.207,0.168
		l-0.233,0.142l-0.537,0.207l-1.49,0.358l-0.491,0.256l-0.301,0.185l-0.301,0.272l-0.405,0.505l-0.164,0.401l-0.063,0.394
		l0.011,0.793l-0.149,1.114l-0.25,0.263l-0.362,0.22l-6.922,15.466l-1.137,1.708l-2.966,0.937l-0.646,0.349l-0.184,0.31
		l-0.006,0.358l-0.115,0.213v0.25l0.155,0.328l0.287,0.855l0.767,1.592l0.81,3.438l0.181,3.067l0.655,3.399l0.215,0.569l0.086,0.306
		l0.313,2.007l0.103,0.28l0.069,1.368l-0.201,1.799l-0.006,0.842l0.086,0.552l0.37,0.418l0.155,0.224l0.138,0.246l0.293,0.85
		l0.164,0.228l0.181,0.185l0.215,0.164l0.388,0.372l0.267,0.5l0.769,2.337l1.688,3.279l2.303,3.502l0.396,0.383l1.792,1.247
		l0.812,0.75l0.172,0.207l0.611,0.932l0.457,1.049l0.146,0.237l0.172,0.224l0.569,0.595l0.327,0.432l0.502,1.056l0.577,2.506
		l0.112,0.254l0.138,0.228l0.164,0.217l0.792,0.767l0.224,0.159l0.241,0.142l1.381,0.482l0.784,0.385l0.224,0.155l0.749,0.741
		l0.434,0.336l3.388,1.937l0.405,0.353l0.37,0.401l0.31,0.445l0.138,0.245l0.112,0.271l0.276,0.508l1.243,1.419l0.215,0.172
		l0.258,0.125l0.577,0.185l0.224,0.152l0.379,0.353l0.181,0.198l0.207,0.172l1.019,0.5l0.181,0.125l0.052,0.108l-0.043,0.126
		l-8.699,3.523l-0.594,0.336l-0.313,0.357l0.086,0.613l9.199,24.603l0.086,0.368l-0.006,0.465l-0.494,0.356l-0.637,0.313
		l-6.586,2.544l-0.164,0.169l-0.164,0.21l-1.803,3.115l-0.68,0.827l-0.62,0.589l-1.26,0.973l-0.732,0.827l-1.542,2.257l-0.637,1.203
		l-0.149,0.465l-0.172,0.824l-0.121,0.25l-0.233,0.233l-18.481,6.974l-0.373,0.181l-0.258,0.155l-0.172,0.181l-0.129,0.204
		l-0.715,1.522l-0.758,1.177l-0.181,0.192l-0.21,0.172l-0.241,0.126l-0.284,0.083l-3.431,0.451l-0.293,0.077l-0.241,0.092
		l-0.982,0.537l-0.155,0.109l-0.233,0.198l-0.25,0.385l-0.043,0.327l0.103,0.253l0.19,0.195l1.051,0.746l0.129,0.124l0.077,0.187
		l3.026,12.897l0.155,2.116l-0.078,0.393l-0.146,0.373l-0.413,0.804l-0.086,0.365l0.491,11.536l-1.358-0.488l-0.669-0.385
		l-0.284-0.456l-0.293,0.112l-0.709,0.129l-0.873-0.037l-0.781-0.393l-1.315,0.319l-3.279-1.1l-1.51,0.023l-2.799,2.056
		l-1.662,0.772l-1.26-0.551l-0.505,0.224l-0.517,0.012l-0.543-0.103l0.029,0.721l25.268,43.593l6.595,14.392l0.396,1.229
		l0.201,30.04l-0.08,0.316l-0.212,0.474l-1.252,1.275l-0.577,0.744l-0.138,0.75l0.043,0.75l1.413,8.635l-0.095,1.54l-0.25,1.195
		l-10.129,20.281l-0.224,0.233l-0.594,0.48l-0.241,0.121l-0.284,0.106l-0.916,0.236l-0.258,0.109l-0.457,0.307l-0.181,0.187
		l-1.085,1.586l-0.198,0.164l-0.985,0.578l-0.267,0.112L443,443.84l-0.698,0.081l-0.672-0.017l-0.89-0.141l-0.844-0.236
		l-0.267,0.089l0.078,0.236l22.896,33.741l-0.009,0.124l-0.095,0.086l-0.577-0.017l-0.302-0.072l-0.258-0.109l-0.456-0.288
		l-0.25-0.075h-0.258l-0.158,0.052l-0.189,0.118l-0.379,0.348l-0.56,0.607l-0.233,0.124l-0.301,0.023l-0.276-0.06l-0.534-0.221
		l-0.276-0.083l-0.319-0.012l-0.589,0.132l-0.276,0.101l-0.31,0.04l-0.327,0.003l-0.982-0.129l-0.344,0.009l-0.33,0.066
		l-0.276,0.098l-0.233,0.144l-0.835,0.667l-0.241,0.147l-0.267,0.103l-0.965,0.078l-0.276,0.075l-0.244,0.124l-0.224,0.15
		l-0.258,0.121l-0.835,0.279l-0.241,0.017l-0.164-0.02l-0.138-0.104v-0.161l0.052-0.27l0.138-0.417l-0.103-0.25l-0.215-0.147
		l-2.673-0.227l-1.637-0.65l-0.304-0.08l-0.319-0.052l-0.353-0.006l-1.619,0.256l-0.31,0.02l-0.287-0.052l-0.241-0.124l-0.904-0.63
		l-0.534-0.204l-0.612-0.15l-0.276-0.103l-0.207-0.144l-0.138-0.138l-0.253-0.299l-0.164-0.155l-0.439-0.313l-0.241-0.135
		l-0.801-0.31l-0.93-0.575l-0.511-0.233l-0.284-0.104l-0.603-0.138l-0.301-0.029l-0.302,0.02l-0.319,0.204l-0.207,0.193
		l-0.215,0.141l-0.19,0.017l-0.787-0.057l-0.706,0.046l-0.586,0.132l-0.319,0.155l-0.155,0.115l-0.319,0.42l-0.103,0.043
		l-0.164-0.095l-0.353-0.359l-0.683-0.842l-0.792-0.693l-0.233-0.147l-2.406-0.954l-0.241-0.147l-0.413-0.368l-0.164-0.207
		l-0.121-0.242l-0.276-0.868l-1.131-2.291l-2.412-3.682l-0.985-0.888l-0.233-0.144l-0.784-0.336l-0.284-0.078l-1.872-0.796
		l-1.705-1.296l-0.181-0.19l-0.993-1.311l-0.181-0.19l-0.215-0.17l-0.25-0.121l-0.276-0.086l-0.319,0.083l-0.37,0.236l-0.491,0.609
		l-1.389,0.88l-6.724,3.199l-1.327,0.423l-1.433-0.428l-0.629-2.874l-0.56-1.362l-16.465-19.011l-0.233-0.396l-0.155-0.598
		l0.023-0.371l0.115-0.296l0.362-0.411l0.577-0.543l0.224-0.161l0.241-0.138l0.276-0.112l0.947-0.218l0.284-0.095l0.235-0.138
		l0.198-0.204l0.276-0.497l0.095-0.267l0.517-2.885l0.086-0.29l0.121-0.241l0.164-0.207l0.198-0.187l0.224-0.158l0.25-0.147
		l0.474-0.198l0.985-0.239l0.207-0.086l-0.086-0.244l-0.362-0.431l-1.278-0.813l-0.827-0.356l-0.749-0.161l-0.416,0.026
		l-0.672,0.121l-0.689,0.052l-0.336-0.034l-1.645-0.586l-3.468-2.744l-0.362-0.19l-1.137-0.31l-0.267-0.118l-1.252-0.83
		l-1.034-0.856l-1.516-0.982l-3.095-1.577l-1.553-0.54l-2.707-0.445l-2.42-2.419l-1.079-0.81l-0.887-0.451l-1.183-0.373l-0.56-0.457
		l-0.508-0.652l-0.586-1.229l-0.327-0.936l-0.043-0.25l-0.637-1.471l-0.086-0.666l-0.012-0.606l0.528-1.939l-0.787-1.195
		l-8.18-9.763l-1.329-2.335l-0.353-0.942l-0.172-0.617l0.034-0.276l0.034-0.135l0.508-1.198l0.339-1.275l-0.19-0.348l-0.511-0.198
		l-1.481-0.302l-0.68-0.026l-0.525,0.06l-1.812,0.85l-0.293,0.075l-0.327,0.012l-0.327-0.089l-0.261-0.391l-0.126-0.345l0.413-1.936
		l1.533,0.215l0.517-0.236l0.439-0.549l0.416-0.431l0.126-0.238l0.034-0.207l-0.818-1.077l-0.138-0.29l0.052-0.184l0.121-0.152
		l2.544-1.712l0.267-0.371l0.138-0.414l0.095-0.893l0.215-0.224l0.276-0.109l0.293,0.046l0.571,0.149l0.698,0.014l2.837,0.526
		l0.5,0.003l0.224-0.069l0.207-0.158l1.045-1.108l0.646-0.551l0.301-0.373l1.413-1.396l0.752-0.784l1.146-2.358l0.655-1.838V373.2
		l-0.189-0.818l-0.034-0.718l0.129-0.434l0.233-0.353l0.379-0.359l1.045-0.681l0.258-0.118l0.31-0.037l0.319,0.017l0.302,0.06
		l0.655,0.029l0.543-0.103l0.373-0.149l0.491-0.258l0.267-0.103l0.594-0.118l0.284,0.014l0.276,0.072l1.751,1.229l0.121,0.009
		l0.129-0.086l0.62-0.603l1.525-2.136l-0.034-1.097l0.253-1.212l0.212-0.549l0.086-0.422v-0.379l-0.092-0.276l-0.167-0.212
		l-0.198-0.147l-0.224,0.009l-0.241,0.1l-0.93,0.577l-0.267,0.121l-0.284,0.098l-0.319,0.052l-0.301-0.037l-0.261-0.112l-0.19-0.19
		l-0.164-0.224l-0.508-1.005l-0.594-2.108l-0.129-0.256l-0.155-0.227l-0.172-0.195l-2.07-1.711l-0.121-0.396v-0.594l0.543-4.003
		l0.146-0.494l0.141-0.307l0.138-0.103l0.474-0.215l0.267-0.083l0.25-0.037h0.198l0.258,0.052l0.241,0.103l0.431,0.31l0.758,0.764
		l1.097,0.801l0.25,0.121l0.336,0.049l0.431-0.049l7.356-2.751l0.586-0.353l0.095-0.253l-0.095-0.207l-0.172-0.21l-0.121-0.25
		l-0.276-0.899l-0.124-0.652l-0.103-3.982l0.043-0.445l-0.017-1.444l-0.456-0.801l-1.774-2.113l-0.181-0.5l-0.06-0.482l0.017-4.261
		l-0.198-0.89l-5.863-14.304l-0.396-0.583l-11.493-8.627l-1.303-1.295l1.648-0.836l5.32-1.875l1.972-1.306l0.416-0.345l5.756-5.975
		l0.129-0.293l0.069-0.325l0.198-2.423l0.069-0.301l0.158-0.359l0.241-0.385l0.758-0.959l0.19-0.336l0.172-0.606l0.112-1.361
		l-0.026-0.344l-0.069-0.31l-0.672-1.654l-0.138-0.253l-0.637-0.881l-0.184-0.204l-0.284-0.474l-0.422-1.134l-0.121-0.62l0.06-2.794
		l-0.077-0.755l-0.06-0.31l-0.138-0.339l-0.258-0.356l-0.586-0.167l-25.113-3.224l-0.649-0.19l-0.241-0.164l-0.086-0.284
		l0.009-0.316l0.078-0.296l0.138-0.238l0.856-0.663l0.345-0.413l0.146-0.235l0.534-0.609l0.138-0.235l0.121-0.626l0.112-0.276
		l0.164-0.23l0.379-0.385l0.164-0.212l0.069-0.35l0.029-0.442l-0.121-1.186l0.023-0.83l0.224-1.016l0.218-0.279l0.284-0.155
		l0.319-0.003l0.629,0.106l0.336,0.026l0.345-0.011l4.157-0.861l1.249-0.385l0.353-0.169l0.525-0.327l0.276-0.129l0.31-0.075
		l0.632-0.037l0.474,0.02l0.284,0.057l0.267,0.103l0.68,0.442l0.241,0.121l0.577,0.184l0.967,0.123l0.19,0.161l0.276,0.33
		l0.319,0.281l0.207,0.149l0.233,0.126l0.258,0.077l0.646,0.078l0.666,0.023l0.293-0.075l0.241-0.155l0.603-0.546l0.233-0.143
		l0.267-0.092l0.284-0.012l0.276,0.052l0.25,0.115l0.224,0.155l0.752,0.758l0.922,0.609l0.198,0.187l0.181,0.204l1.717,2.498
		l0.491,1.034l0.491,0.649l0.276,0.491l0.121,0.267l0.155,1.016l0.103,0.287l0.181,0.195l0.379,0.359l0.339,0.445l0.37,0.402
		l0.215,0.158l0.525,0.232l0.577,0.144l0.31,0.017l2.216-0.454l0.861-0.316l0.293-0.072l0.319-0.035l0.284,0.02l0.253,0.092
		l0.465,0.287l0.525,0.414l0.172,0.109l0.491,0.189l0.353,0.034l0.388-0.011l1.011-0.307l0.37-0.02l0.25,0.106l0.646,0.445
		l0.241-0.032l0.181-0.21l0.284-0.471l0.267-0.241l0.293-0.172l1.105-0.448l0.775-0.58l1.137-1.08l0.353-0.241l0.735-0.359
		l0.594-0.396l0.353-0.35l0.362-0.485l0.293-0.201l0.31-0.055l0.267,0.103l0.25,0.129l0.373,0.029l0.457-0.098l1.318-0.749
		l0.439-0.146l0.336-0.034l0.692,0.034l0.637,0.098l0.336,0.012l0.336-0.034l1.318-0.419l0.52-0.23l0.276-0.218l0.233-0.31
		l0.431-0.827l0.25-0.261l0.336-0.25l1.045-0.615l0.405-0.072l0.353,0.014l0.482,0.264l0.215,0.143l0.31,0.063l0.37-0.034
		l2.199-1.246l0.853-0.701l0.956-0.976l0.382-0.488l0.25-0.198l0.198-0.124l0.491-0.098l0.301-0.009l0.284,0.052l0.81,0.319
		l0.907,0.256l0.258,0.031l0.078-0.178l-1.191-19.029l-0.276-0.867l-0.586-0.864l-3.388-3.926l-0.646-0.962l-0.267-0.948
		l-0.563-7.511l-0.284-0.85l-0.689-0.814l-3.017-2.803l-0.448-0.517l-0.103-0.095l-0.103-0.04l-0.155-0.035h-0.215l-0.215,0.026
		l-0.112,0.023l-0.276,0.121l-0.431,0.271l-0.778,0.728l-0.224,0.151l-0.241,0.125l-0.302,0.073l-0.319,0.019l-0.947-0.144h-0.327
		l-0.322,0.039l-0.284,0.073l-0.25,0.109l-0.853,0.569l-0.999,0.513l-0.293,0.077l-0.658,0.047l-0.956-0.138l-0.301,0.022
		l-0.276,0.086l-0.465,0.271l-0.207,0.161l-0.477,0.284l-0.264,0.103l-0.58,0.159l-1.619,0.215l-0.577,0.172l-0.769,0.349
		l-0.293,0.078l-0.31,0.052l-0.336-0.009l-0.319-0.052l-0.276-0.112l-0.232-0.151l-0.181-0.19l-0.164-0.211l-3.761-8.905
		l-0.62-0.883l-0.37-0.385l-2.329-1.837l-1.421-1.587l-0.284-0.47l-0.189-0.551l-0.534-3.822l-0.103-0.327l-0.132-0.233
		l-0.172-0.168l-0.207-0.159l-2.248-1.169l-0.658-0.483l-0.37-0.389l-0.146-0.263l-0.922-2.433l-1.318-2.414l-0.657-0.85
		l-0.379-0.383l-0.844-0.672l-0.724-0.457l-0.83-0.643l-0.172-0.211l-0.146-0.228l-0.121-0.25l-0.198-0.531l-0.121-0.246
		l-0.637-0.728l-0.293-0.198l-1.025-0.475l-0.614-0.16l-5.489-0.491l-2.578,0.047l-1.605,0.172l-0.301-0.009l-0.224-0.078
		l-0.078-0.224l0.181-1.518l-0.448-1.82l-2.423-6.403l-0.319-0.646l-0.465-0.715l-3.233-2.839l-0.448-0.734l-4.502-12.757
		l-0.327-0.686l-0.396-0.407l-0.689-0.164l-0.68-0.004l-0.64,0.22l0.652,1.65l-0.327,1.229l-0.637,1.066l-3.058,3.236l-0.448,0.25
		l-0.327,0.069l-1.37-0.207l-0.198-0.069l-0.672,0.043l-0.528,0.129l-0.416,0.233l-0.35,0.355l-1.461-1.562l-0.336-2.322
		l0.003-2.562l-0.448-2.288l-1.306-2.209l-0.965-1.135l-1.866-1.053l-0.379-1.321l0.017-3.844l-0.052-0.379l-0.264-0.614
		l-0.755-1.252l-0.399-1.526l-0.566-1.235l-1.085-1.83l-1.28-1.11l-3.066-2.007l-2.291-2.004l-0.19-0.233l-0.362-1.666l-0.224-0.44
		l-0.419-0.086l-0.919,0.819l-0.56,0.233l-0.577-0.16l-0.721-0.746l-0.428-0.233l-2.231,0.073l-0.847-0.302l-0.336-1.136
		l1.522-6.035l-0.003-0.648l-0.178-0.647l-0.482-1.166l-0.098-0.638l0.121-0.552l0.517-1.132l0.121-0.597l-0.293-0.362l-0.686-0.013
		l-1.332,0.203l-1.898-0.794l-0.416-0.246l-0.29-0.246l-0.356-0.191l-0.436-1.39L296.106,62.706z"/>
	<path class="st0" d="M476.726,115.709l0.356-0.205l0.729,0.043l0.258,0.577l-0.511,1.027l6.936,0.207l1.711,0.577l0.482,0.624
		l0.293,0.754l0.419,0.743l0.884,0.588l1.774-0.093l0.936-1.464l1.212-3.706l1.436-1.726l3.646-3.33l4.37-4l1.062-1.401l0.919-1.716
		l1.55-4.104l1.091-2.912l1.12-1.376l4.76-2.306l4.783-2.307l5.386-2.606l2.515-1.252l0.253-0.327l-0.04-0.347l0.052-0.222
		l0.534,0.052l0.167,0.095l0.167,0.046l0.155-0.009l5.627-1.966l4.381-1.527l0.299-0.282l0.327-0.9l0.316-0.295l7.178-2.768
		l5.868-2.258l4.622-1.778l3.503-2.307l1.223,1.621l3.348,2.276l1.367,1.56l0.93,1.723l0.574,0.564l1.011,0.517l2.653,0.907
		l0.896,0.535l1.453,1.341l3.566,4.999l2.469,1.925l2.693,1.095l2.905,0.338l5.673-0.324l6.23-0.36l2.791-0.783l1.47-0.081
		l4.45-1.101l0.884,0.06l1.47,0.612l0.792,0.147l0.804-0.181l2.354-1.348l2.641,0.863l2.446,1.295l2.475,0.485l2.728-1.547
		l-4.651,6.685l-4.663,6.683l-4.657,6.685l-4.663,6.684l-2.871,4.116l-2.877,4.12l-2.871,4.112l-2.877,4.118l-4.559,4.526
		l-4.571,4.529l-4.571,4.525l-4.565,4.522l-1.901,1.886l-0.798,1.544l0.029,2.978l0.069,7.168l0.075,7.487v4.124v5.919v5.919v5.917
		v5.918v6.95v6.946v6.949v6.948v6.944v6.945v0.94v6.006v6.946v6.943v6.946v6.94v6.948v6.942v6.948v6.942v6.948l0.063,4.553
		l0.046,3.75l0.04,3.75l0.08,6.035l0.08,6.024l0.08,6.029l0.08,6.035l0.052,3.916l0.052,3.916l0.052,4.221l1.418,1.832l1.407,1.832
		l1.418,1.826l1.412,1.832l2.75,3.549l2.842,3.681l3.06,3.957l2.538,3.274l2.733,3.532l2.865,3.705l2.802,3.613l2.796,3.619
		l2.13,2.757l0.672,1.224l0.201,1.051l-0.147,3.48l-0.017,0.001l-29.598,1.87l-0.353,0.063L528.21,424.15l-3.043,1.169l-0.232-1.037
		v-0.345l0.238-0.569l-0.255-0.816l-0.775-1.686l-0.689-3.054l-0.448-0.776l0.201-0.178l0.376-0.414l0.215-0.167l-0.35-0.779
		l-0.442-2.637l-0.255-0.402l-0.594-0.635l-0.256-0.517l-0.043-0.428l0.319-0.597l0.069-0.457l-0.382-2.464l0.037-0.951l0.118-0.187
		l0.244-0.207l0.253-0.299l0.146-0.448l-0.089-0.037l-0.327-1.479l-0.121-3.559l-0.431-0.841l-0.749-0.738l-0.465-0.629
		l-2.294-4.825l-0.319-0.482l-0.187-0.583l-0.365-3.59l-0.551-1.953l-0.362-2.145l-0.261-4.698l-0.657-2.157l-1.237-1.447
		l-0.224-1.174l-0.629-1.134l-0.962-0.787l-1.22-0.129l0.416-1.005l0.313-0.471l0.408-0.422l-0.795-0.792l-1.973-3.948l-0.353-1.588
		l-0.327-0.913l-0.724-1.174l0.029-1.137l-0.029-0.344l-0.844-2.544l-0.293-0.525l0.198-0.405l0.086-0.333l0.095-0.816h-0.379
		l-0.442,0.072l-0.167-0.557l-0.152-1.754l-0.709-1.838l-0.118-0.833l0.448-0.778l-0.503-0.528l-0.057-0.887l0.086-0.836
		l-0.078-0.37l-1.691-2.501l-0.103-1.005l-0.296-0.781l-0.497-0.603l-0.689-0.491l-0.884-0.35l-1.456-0.147l-0.66-0.261
		l-0.204-0.359l-1.39-1.668l-0.339-0.043l-0.054-0.815l-0.204-0.655l-0.405-0.439l-0.663-0.158l-0.37-0.841l-2.156-7.959
		l-0.732-1.326l-0.948-0.566l-0.172-0.218l-0.566-1.011l-0.212-0.287l-0.511-0.187l-0.824,0.112l-0.594-0.307l-0.637-1.548
		l-0.299-0.468l-0.784-0.543l-0.497-0.881l-0.746-0.637l-0.879-0.551l-0.712-0.336l-1.99-0.445l-0.319-0.106l-0.138-0.299
		l-0.342-0.304l-0.428-0.235l-1.651-0.267l-0.62-0.416l-0.497-0.514l-0.879-0.448l-1.194-0.066l-1.094,0.25l-1.039,0.112
		l-1.016-0.485l-4.76-0.19l-2.943-3.62l-0.678-0.554l-0.247-0.123l-0.207-0.273l-0.267-0.27l-0.434-0.126h-1.708l-1.766,0.319
		l-0.881,0.293l-0.594,0.356l-0.422,0.62l-0.35,0.689l-0.434,0.56l-0.692,0.232l-10.448-1.55l-0.491-11.536l0.086-0.365l0.413-0.804
		l0.146-0.373l0.078-0.393l-0.155-2.116l-3.026-12.897l-0.077-0.187l-0.129-0.124l-1.051-0.746l-0.19-0.195l-0.103-0.253
		l0.043-0.327l0.25-0.385l0.233-0.198l0.155-0.109l0.982-0.537l0.241-0.092l0.293-0.077l3.431-0.451l0.284-0.083l0.241-0.126
		l0.21-0.172l0.181-0.192l0.758-1.177l0.715-1.522l0.129-0.204l0.172-0.181l0.258-0.155l0.373-0.181l18.481-6.974l0.233-0.233
		l0.121-0.25l0.172-0.824l0.149-0.465l0.637-1.203l1.542-2.257l0.732-0.827l1.26-0.973l0.62-0.589l0.68-0.827l1.803-3.115
		l0.164-0.21l0.164-0.169l6.586-2.544l0.637-0.313l0.494-0.356l0.006-0.465l-0.086-0.368l-9.199-24.603l-0.086-0.613l0.313-0.357
		l0.594-0.336l8.699-3.523l0.043-0.126l-0.052-0.108l-0.181-0.125l-1.019-0.5l-0.207-0.172l-0.181-0.198l-0.379-0.353l-0.224-0.152
		l-0.577-0.185l-0.258-0.125l-0.215-0.172l-1.243-1.419l-0.276-0.508l-0.112-0.271l-0.138-0.245l-0.31-0.445l-0.37-0.401
		l-0.405-0.353l-3.388-1.937l-0.434-0.336l-0.749-0.741l-0.224-0.155l-0.784-0.385l-1.381-0.482l-0.241-0.142l-0.224-0.159
		l-0.792-0.767l-0.164-0.217l-0.138-0.228l-0.112-0.254l-0.577-2.506l-0.502-1.056l-0.327-0.432l-0.569-0.595l-0.172-0.224
		l-0.146-0.237l-0.457-1.049l-0.611-0.932l-0.172-0.207l-0.812-0.75l-1.792-1.247l-0.396-0.383l-2.303-3.502l-1.688-3.279
		l-0.769-2.337l-0.267-0.5l-0.388-0.372l-0.215-0.164l-0.181-0.185l-0.164-0.228l-0.293-0.85l-0.138-0.246l-0.155-0.224l-0.37-0.418
		l-0.086-0.552l0.006-0.842l0.201-1.799l-0.069-1.368l-0.103-0.28l-0.313-2.007l-0.086-0.306l-0.215-0.569l-0.655-3.399
		l-0.181-3.067l-0.81-3.438l-0.767-1.592l-0.287-0.855l-0.155-0.328v-0.25l0.115-0.213l0.006-0.358l0.184-0.31l0.646-0.349
		l2.966-0.937l1.137-1.708l6.922-15.466l0.362-0.22l0.25-0.263l0.149-1.114l-0.011-0.793l0.063-0.394l0.164-0.401l0.405-0.505
		l0.301-0.272l0.301-0.185l0.491-0.256l1.49-0.358l0.537-0.207l0.233-0.142l0.207-0.168l0.835-0.916l0.413-0.341l0.525-0.229
		l2.819-0.907l0.459-0.276l0.362-0.328l0.637-0.946l0.267-0.315l1.215-0.871l0.189-0.19l0.155-0.532l0.112-0.871l-0.052-7.357
		l-0.379-3.143l-0.551-1.925l-0.792-10.329L476.726,115.709z"/>
	<path class="st0" d="M601.154,402.984l-0.048,1.111l-0.032,0.032l-4.232,4.333l-1.998,3.053l-0.262,0.973l-1.203,0.742l-3.16,2.877
		l-1.98,2.434l-1.153,0.688l-0.854-1.049l-1.035,0.425l-0.958-0.1l-0.638-0.638l-0.054-1.199l-1.112,1.149l-0.217,1.33l-0.515,1.285
		l-1.605-0.149l-2.17-0.511l-0.484-0.036l-0.683,0.425l-1.103,1.212l-1.501,0.633l-0.579,0.751l-0.606,0.624l-0.873-0.045
		l-0.733-0.38l-0.529-0.371l-0.366-0.534l-0.231-0.796l0.041-0.823l0.547-1.538l-0.036-0.678l-0.136-0.769l0.226-0.688l0.836-1.24
		l-1.967,1.511l-0.226,6.537l-1.185,1.479l-1.031-0.774l-1.031-3.42l-1.013-0.774l-0.579-0.335l-0.511-0.588l-0.52-0.208
		l-0.66,0.787l0.362,0.832l0.163,0.733l-0.145,0.706l0.904-0.394l0.714,0.19l0.484,0.624l0.167,0.909l-0.118,0.371l-0.515,0.299
		l-0.127,0.317l0.185,0.534l0.407,0.127l0.407,0.09l0.176,0.371l0.095,4.054l0.33,2.154l0.714,1.403l0.497,0.136l0.606-0.072
		l0.678,0.032l0.701,0.489l0.543,0.801l0.081,0.606l-0.624,1.444l-1.37,1.688l-1.234,0.244l-0.176-0.629l1.818-0.91l-0.958-0.344
		l-0.769-0.516l-1.347-1.421l-0.208-0.443l0.072-0.281l-0.036-0.213l-0.588-0.231l0.072,0.127l-0.375,0.131l-0.814,0.149
		l-1.388,0.76l-1.243,1.493l-1.167,1.032l-1.153-0.625l0.036,0.475l0.145,0.502l0.298,0.416l0.457,0.163l0.267,0.154l-0.104,0.362
		l-0.375,0.602l0.362,0.815l1.573,1.045l0.38,0.778l-0.651,1.285l-1.533,1.507l-1.732,1.249l-2.577,1.063l-3.4,4.046l-1.926,0.733
		l-1.704-0.371l-1.655-0.747l-1.768-0.407l-1.818,0.19l-5.615,1.77l-2.306,1.656l-1.402,0.444l-1.632,1.018l-2.767,2.241
		l-0.656,0.688l-0.488,0.779l-1.026,2.327l-1.659,2.1l-0.24,0.937l0.109,0.43l0.827,1.104l0.063,0.362l-0.213,0.851l-0.059,0.484
		l-1.049,3.554l-0.127,1.824l1.176,0.892l-0.289,1.458l0.674,0.643l1.144-0.113l1.157-0.856l0.045,0.625l-0.434,0.661l-1.944,1.852
		l-1.162,1.553l-0.298,0.67l-0.24,2.825l-0.353,0.969l-1.89,2.69l-0.041,0.747l0.601,2.024l-0.009,1.033l-0.344,0.861l-0.493,0.797
		l-0.646,0.697l-0.791,0.525l-2.686,1.223l-0.732,0.489l-1.334,1.562l-0.75,0.598l-0.981,0.159l0.434-0.947l0.601-2.124l0.104-0.77
		l-0.999,0.245l-0.439,0.543l-0.095,0.725l0.014,0.784l-0.054,0.516l-0.326,1.372l0.104,0.308l0.208,0.303l0.1,0.331l-0.977,1.603
		l-1.13,2.971l-1.483,2.383l-0.579,3.203l-0.637,1.3l-0.705,0.634l-0.484,0.1l-1.203-0.525l-0.267-0.163l-0.728-0.843l-0.262-0.054
		l-1.478-0.122l0.23-0.485l0.041-0.222l-0.574-0.462l-0.434,1.019l0.154,0.852l0.669,0.498l1.121-0.018l-0.669,0.788l0.226,0.652
		l0.782,0.258l1.931-0.788l0.619,0.449l0.353,0.852l0.14,0.825l-0.108,1.758l-4.481,12.375l-1.424,1.373l-1.591,0.254l-1.121-0.838
		l0.009-1.89l-1.23,0.68l-0.344,0.421l0.199,0.557l0.375,0.562l0.19,0.526l0.249,0.508l0.561,0.512l1.23-0.095l0.615,0.299
		l-0.158,0.961l-1.171,1.296l-0.172,0.394l-0.154,0.494l-0.398,0.689l-0.493,0.607l-0.484,0.263l-0.534-0.29l-0.371-1.278
		l-0.434-0.295l-0.38-0.675l0.117-1.278l-0.081-0.77l-0.968,0.82l-1.429-0.784l-0.647-0.1l-0.61,0.503l0.552,0.53l0.656,0.258
		l1.479,0.353l-0.416,0.993l-0.524,0.471l-1.745,0.399l-0.57,0.014l-0.624-0.059l-0.502,0.059l-0.203,0.385l0.041,1.179l0.109,0.553
		l0.231,0.571l0.805-1.088l1.845-0.127l1.944,0.571l1.09,1.024l-0.212,1.342l-2.776,4.778l-1.781,4.543l-1.818,6.838l-0.615,1.578
		l-0.497-0.726l-0.479,0.041l-0.47,0.485l-0.443,0.626l-0.09,0.304l0.054,0.694l-0.176,0.313l-0.791,0.721l-0.172,0.245
		l-1.899,5.742l-0.353-1.034l0.172-1.624l-0.199-0.798l-0.714,0.558l-0.398,0.776l-0.335,0.871l-0.452,0.835l-0.271-0.032
		l-0.393-0.213l-0.353,0.054l-0.149,0.785l0.108,0.463l0.868,1.211l-0.561,0.771l-1.872,0.277l-2.116-0.522l-1.329-1.651
		l-0.045,0.322l-0.33,0.821l-1.632-0.494l-1.203,1.157l-1.017,1.588l-1.085,0.794l-0.23,0.077l-0.199,0.018l-0.181,0.082
		L470.852,570l-4.714-3.411l-4.743-3.422l-4.743-3.427l-4.743-3.427l-4.743-3.421l-4.749-3.426l-4.737-3.426l-4.737-3.42
		l-4.749-3.42l-0.368-0.266l-4.369-3.159l-4.749-3.419l-4.737-3.425l-4.737-3.419l-4.749-3.424l-4.737-3.424l-4.743-3.424
		l-3.026-2.175l-0.764-1.001l-0.557-1.139l-0.965-3.429l-0.419-0.857l-0.775-0.713l-1.051-0.506l-1.171-0.311l-1.189-0.104
		l-2.659,0.155l-0.161-0.765l0.442-1.087l0.224-0.921l-0.281-0.437l-0.913-0.115l-0.402-0.408l-0.086-0.587l0.143-0.65l0.264-0.621
		l0.281-0.495l0.81-0.897l1.24-0.984l1.321-0.707l1.051-0.081l-0.08-0.995l0.195-0.777l0.551-0.477l1.011-0.075l-1.114-6.801
		l1.011-0.31l5.113-0.696l0.474,0.052l0.534,0.009l0.89-0.069l0.362-0.497l0.207-0.658l0.879-7.961l3.75-12.801l1.433,0.428
		l1.327-0.423l6.724-3.199l1.389-0.88l0.491-0.609l0.37-0.236l0.319-0.083l0.276,0.086l0.25,0.121l0.215,0.17l0.181,0.19
		l0.993,1.311l0.181,0.19l1.705,1.296l1.872,0.796l0.284,0.078l0.784,0.336l0.233,0.144l0.985,0.888l2.412,3.682l1.131,2.291
		l0.276,0.868l0.121,0.242l0.164,0.207l0.413,0.368l0.241,0.147l2.406,0.954l0.233,0.147l0.792,0.693l0.683,0.842l0.353,0.359
		l0.164,0.095l0.103-0.043l0.319-0.42l0.155-0.115l0.319-0.155l0.586-0.132l0.706-0.046l0.787,0.057l0.19-0.017l0.215-0.141
		l0.207-0.193l0.319-0.204l0.302-0.02l0.301,0.029l0.603,0.138l0.284,0.104l0.511,0.233l0.93,0.575l0.801,0.31l0.241,0.135
		l0.439,0.313l0.164,0.155l0.253,0.299l0.138,0.138l0.207,0.144l0.276,0.103l0.612,0.15l0.534,0.204l0.904,0.63l0.241,0.124
		l0.287,0.052l0.31-0.02l1.619-0.256l0.353,0.006l0.319,0.052l0.304,0.08l1.637,0.65l2.673,0.227l0.215,0.147l0.103,0.25
		l-0.138,0.417l-0.052,0.27v0.161l0.138,0.104l0.164,0.02l0.241-0.017l0.835-0.279l0.258-0.121l0.224-0.15l0.244-0.124l0.276-0.075
		l0.965-0.078l0.267-0.103l0.241-0.147l0.835-0.667l0.233-0.144l0.276-0.098l0.33-0.066l0.344-0.009l0.982,0.129l0.327-0.003
		l0.31-0.04l0.276-0.101l0.589-0.132l0.319,0.012l0.276,0.083l0.534,0.221l0.276,0.06l0.301-0.023l0.233-0.124l0.56-0.607
		l0.379-0.348l0.189-0.118l0.158-0.052h0.258l0.25,0.075l0.456,0.288l0.258,0.109l0.302,0.072l0.577,0.017l0.095-0.086l0.009-0.124
		l-22.896-33.741l-0.078-0.236l0.267-0.089l0.844,0.236l0.89,0.141l0.672,0.017L443,443.84l0.301-0.095l0.267-0.112l0.985-0.578
		l0.198-0.164l1.085-1.586l0.181-0.187l0.457-0.307l0.258-0.109l0.916-0.236l0.284-0.106l0.241-0.121l0.594-0.48l0.224-0.233
		l10.129-20.281l0.25-1.195l0.095-1.54l-1.413-8.635l-0.043-0.75l0.138-0.75l0.577-0.744l1.252-1.275l0.212-0.474l0.08-0.316
		l-0.201-30.04l-0.396-1.229l-6.595-14.392l-25.268-43.593l-0.029-0.721l0.543,0.103l0.517-0.012l0.505-0.224l1.26,0.551
		l1.662-0.772l2.799-2.056l1.51-0.023l3.279,1.1l1.315-0.319l0.781,0.393l0.873,0.037l0.709-0.129l0.293-0.112l0.284,0.456
		l0.669,0.385l1.358,0.488l10.448,1.55l0.692-0.232l0.434-0.56l0.35-0.689l0.422-0.62l0.594-0.356l0.881-0.293l1.766-0.319h1.708
		l0.434,0.126l0.267,0.27l0.207,0.273l0.247,0.123l0.678,0.554l2.943,3.62l4.76,0.19l1.016,0.485l1.039-0.112l1.094-0.25
		l1.194,0.066l0.879,0.448l0.497,0.514l0.62,0.416l1.651,0.267l0.428,0.235l0.342,0.304l0.138,0.299l0.319,0.106l1.99,0.445
		l0.712,0.336l0.879,0.551l0.746,0.637l0.497,0.881l0.784,0.543l0.299,0.468l0.637,1.548l0.594,0.307l0.824-0.112l0.511,0.187
		l0.212,0.287l0.566,1.011l0.172,0.218l0.948,0.566l0.732,1.326l2.156,7.959l0.37,0.841l0.663,0.158l0.405,0.439l0.204,0.655
		l0.054,0.815l0.339,0.043l1.39,1.668l0.204,0.359l0.66,0.261l1.456,0.147l0.884,0.35l0.689,0.491l0.497,0.603l0.296,0.781
		l0.103,1.005l1.691,2.501l0.078,0.37l-0.086,0.836l0.057,0.887l0.503,0.528l-0.448,0.778l0.118,0.833l0.709,1.838l0.152,1.754
		l0.167,0.557l0.442-0.072h0.379l-0.095,0.816l-0.086,0.333l-0.198,0.405l0.293,0.525l0.844,2.544l0.029,0.344l-0.029,1.137
		l0.724,1.174l0.327,0.913l0.353,1.588l1.973,3.948l0.795,0.792l-0.408,0.422l-0.313,0.471l-0.416,1.005l1.22,0.129l0.962,0.787
		l0.629,1.134l0.224,1.174l1.237,1.447l0.657,2.157l0.261,4.698l0.362,2.145l0.551,1.953l0.365,3.59l0.187,0.583l0.319,0.482
		l2.294,4.825l0.465,0.629l0.749,0.738l0.431,0.841l0.121,3.559l0.327,1.479l0.089,0.037l-0.146,0.448l-0.253,0.299l-0.244,0.207
		l-0.118,0.187l-0.037,0.951l0.382,2.464l-0.069,0.457l-0.319,0.597l0.043,0.428l0.256,0.517l0.594,0.635l0.255,0.402l0.442,2.637
		l0.35,0.779l-0.215,0.167l-0.376,0.414l-0.201,0.178l0.448,0.776l0.689,3.054l0.775,1.686l0.255,0.816l-0.238,0.569v0.345
		l0.232,1.037l3.043-1.169l42.977-19.232l0.353-0.063l29.598-1.87L601.154,402.984z M574.377,423.732l0.651-0.737l1.506,0.095
		l1.664,0.543l1.144,0.651l1.081,1.746l-0.416,1.176l-1.022,0.19l-0.751-1.212l0.05,0.611l-0.081,0.624l-0.217,0.466l-0.353,0.19
		l-0.163,0.072l-0.104,0.14l-0.163,0.14l-0.33,0.072l-0.384-0.131l-0.307-0.258l-0.199-0.258l-0.059-0.122l-0.732,0.109l-0.99,0.335
		l-2.071,1.077l-0.506-0.371l-0.488,0.09l-0.371,0.471l-0.154,0.76l0.298,0.434l0.597,0.353l0.425,0.394l-0.213,0.566l-0.692-0.009
		l-0.434-0.326l-0.244-0.543l-0.109-0.679l-1.234,0.258l0.005-1.262l0.66-1.751l0.76-1.249l1.013-0.566l1.307-0.389l1.139-0.579
		L574.377,423.732z"/>
	<path class="st0" d="M222.412,388.317l-9.001-5.028l-11.932-6.657l-11.926-6.662l-2.964-1.656l0.075-0.225l-0.164-0.131
		l-0.278-0.115l-0.147-0.474l0.425-0.572l0.818-0.131l0.589-0.213l-0.311-0.851l-0.703,0.458l-0.9,0.213l-0.85-0.213l-0.589-0.801
		l1.161,0.262l0.425-0.344l0.327-1.439l2.535,1.619l0.883,0.245v-0.343l-0.491-1.096l0.18-1.341l0.671-2.323l0.572-0.752
		l1.079-0.654l0.752-0.85l-0.458-1.358l-0.523-0.278l-2.551-0.867l-2.29-1.586l-0.36-0.131l-0.033-1.063l-0.213-1.521l-0.556-1.145
		l-1.112,0.131l0.572-4.956l0.376-0.769l0.425-0.164l0.572-0.425l0.491-0.507l0.229-0.458l-0.147-0.736l-0.425-0.523l-0.523-0.458
		l-0.458-0.556l0.343-0.164l0.785-0.065l0.425-0.147l0.883-0.949l0.065-0.147l1.913,0.164l0.736-0.196l0.605-0.769l0.736-3.712
		l0.818-1.587l1.864-0.392l-0.147,0.196l-0.229,0.54l1.586,0.049l2.241,2.028l1.472,0.605l-0.196-0.393l-0.18-0.507l0.016-0.458
		l0.36-0.164l0.393,0.229l0.458,0.965l0.262,0.327l0.916,0.147l0.72-0.376l0.278-0.752l-0.36-0.949l0.85-0.033l0.638,0.18
		l0.523,0.344l0.474,0.507l0.311,0.474l0.507,1.145l0.098,0.458l-0.262,0.393l-0.425,0.507l-0.033,0.458l0.916,0.18l0.687-0.229
		l1.357-1.079l0.638-0.229l0.147-0.196l1.57-0.949l0.131-0.491l-0.016-0.769l-0.294-0.703l-2.388-0.965l-0.425-1.505l0.082-1.652
		l-0.115-1.161l1.063-0.491l1.668-0.458l1.619-0.262l0.949,0.065l0.572-0.376l0.442-0.033l0.376,0.213l0.376,0.376l0.605,0.376
		l0.507-0.016l0.491-0.147l0.458-0.049l2.519,0.72l1.112,0.082l3.451-0.343l0.736-0.245l0.033-0.85l-0.327-1.096l0.065-0.752
		l1.178,0.229l0.671-0.245l1.472,1.079l1.096,0.327l0.491-0.18l0.294-0.409l0.18-0.393l0.163-0.18l0.294-0.213l-0.425-0.441
		l-0.572-0.393l-0.213-0.065l-1.897-3.614l-0.196-0.589l-0.752-0.278l-0.752-0.638l-0.621-0.752l-0.376-0.622l-0.376,0.425
		l-0.671-1.341l-0.016-0.785l0.245-0.785l0.065-1.325l-0.769,0.294l-2.682-0.082l-0.262,0.507l-0.605,0.556l-0.687,0.458
		l-1.259,0.36l-1.308,0.769l-2.012,0.294l-0.867,0.376l-0.801,0.556l-0.736,0.687l-0.85,0.507l-0.785-0.065l-1.652-0.638h-0.834
		l-2.208,0.801l-1.635-0.229l-0.981,0.049l-0.801,0.523l-0.213,0.834l0.262,0.883l0.622,0.507l0.85-0.311l0.572,1.161l0.294,1.178
		l-0.082,1.079l-0.589,0.949l-2.829,2.191l-0.393,0.867l-0.245,0.932l-0.605,0.932l-0.834,0.327l-0.949-0.85l0.065-0.245
		l0.229-0.458l0.147-0.572l-0.098-0.654l-0.278-0.327l-0.523-0.344l-0.589-0.311l-0.491-0.164l0.589-0.605l0.164-0.54l-0.311-0.343
		l-0.818-0.016l0.932-1.897l-0.229-0.687l-1.096-0.834l-1.864-0.883l-0.605-0.687l0.163-1.112l-1.652,0.131l-1.995-0.327
		l-1.57-0.916l-0.474-1.586l0.311-0.262l1.357-0.703l0.442-0.131l0.801-0.18l0.033-0.327l-0.54-0.278l-0.883,0.016l0.998-1.505
		l0.229-0.818l-0.638-0.36l-1.603,0.049l-0.981,0.229l-0.671,0.507h0.393l-0.196,0.474l-0.131,0.425l-0.065,0.442v0.556
		l-0.425-0.278l-0.115-0.278l-0.033-0.311l-0.18-0.294l0.213,0.114l-0.638-0.85l-0.262,0.115l-0.654,0.016l-0.36-0.245l0.523-0.671
		v-0.343l-0.311-0.229l-0.36-0.131l-1.014-0.065l-0.213-0.229v-1.652l-0.03-0.14l0.231-0.579l0.179-0.371l0.836-1.413l0.112-0.267
		l0.069-0.302l0.017-0.316l-0.155-0.965v-0.342l0.052-0.313l0.095-0.264l0.129-0.207l0.121-0.138l0.56-0.5l0.663-0.462l0.517-0.25
		l1.045-0.37l0.121-0.112l0.121-0.19l0.129-0.442l0.034-0.241l0.069-1.803l0.189-1.2l0.224-0.896l0.103-0.23l0.112-0.181
		l0.982-1.036l1.665-1.022l0.362-0.109l0.517-0.023l0.982,0.075l0.485-0.069l0.362-0.115l0.189-0.189l0.189-0.221l0.146-0.233
		l0.422-1.068l0.129-0.218l0.146-0.167l0.103-0.1l0.388-0.276l0.258-0.124l0.293-0.092l0.322-0.063l0.422-0.023l0.457,0.023
		l2.983,0.577l0.655,0.069l0.319-0.026l0.284-0.103l0.468-0.29l0.525-0.238l0.31-0.08l0.405,0.06l0.482,0.215l0.999,1.011
		l0.207,0.316l0.189,0.548l0.155,1.019l0.029,1.074l0.069,0.313l0.095,0.276l0.138,0.232l3.026,3.055l0.129,0.253l-0.009,0.276
		l-0.172,0.89l0.164,0.342l0.439,0.382l1.008,0.402l1.464,0.91l0.287,0.264l0.121,0.238l0.06,0.293l-0.026,0.299l-0.129,0.62
		l-0.009,1.694l-0.198,0.568l-0.267,0.494l-0.098,0.267l-0.138,0.52l-0.026,0.204l0.052,0.227l0.112,0.215l0.155,0.241l0.235,0.198
		l0.345,0.215l0.405,0.069l0.474-0.032l0.689-0.218l1.501-0.634l0.922-0.241l0.336,0.017l1.26,0.359l1.318,0.64l0.379,0.034
		l0.474-0.055l1.26-0.439l0.448-0.112l0.431-0.017l1.137,0.241l0.83,0.052l1.309-0.345l0.431-0.04l0.276,0.014l0.284,0.072
		l0.276,0.112l0.224,0.155l0.787,0.746l0.422,0.336l0.241,0.135l0.258,0.106l0.62,0.112h0.723l1.054-0.115l1.473-0.014l2.63,0.319
		l0.344-0.026l0.62-0.155l0.27-0.121l0.723-0.439l0.276-0.109l0.327-0.063l0.327-0.026l0.327,0.009l0.258,0.109l0.224,0.155
		l0.543,0.586l0.215,0.115l0.258,0.049l0.244,0.009l0.241,0.098l0.62,0.488l0.241,0.138l0.267,0.1l0.293,0.043l0.293-0.052
		l0.568-0.201l0.258-0.12l0.244-0.147l0.172-0.201l0.379-0.79l0.138-0.241l0.155-0.207l0.224-0.155l0.276-0.103l0.327-0.04
		l0.336,0.023l0.614,0.138l0.818,0.31l0.93,0.583l0.25,0.115l0.284,0.086l0.31,0.023l0.293-0.06l0.267-0.126l0.459-0.284
		l0.207-0.106l0.164-0.026l0.241,0.02l0.258,0.066l0.258,0.106l0.224,0.146l0.344,0.413l0.138,0.255l0.207,0.574l0.25,1.659
		l0.181,0.207l0.21,0.172l0.241,0.141l1.085,0.436l0.224,0.224l0.164,0.316v0.672l0.077,0.37l0.155,0.27l2.518,2.001l0.172,0.204
		l0.164,0.235l0.103,0.258l0.052,0.511l-0.017,0.33l-0.267,1.84l-0.129,0.29l-0.224,0.25l-0.439,0.138l-0.379,0.026l-0.365-0.026
		l-0.301-0.057l-0.284-0.098l-0.25-0.12l-0.233-0.152l-0.388-0.347l-0.164-0.215l-0.121-0.273l-0.189-0.594l-0.138-0.233
		l-0.207-0.169l-0.284-0.086l-0.663-0.072l-0.304-0.086l-0.233-0.152l-0.189-0.204l-0.146-0.218l-0.327-0.818l-0.181-0.221
		l-0.207-0.175l-0.25-0.109l-0.284-0.032l-0.276,0.057l-0.485,0.241l-0.258,0.086l-0.293-0.012l-0.276-0.077l-0.258-0.138
		l-0.612-0.528l-0.655-0.459l-0.19-0.195l-0.172-0.224l-0.422-0.732l-0.172-0.19l-0.201-0.143l-0.344,0.212l-0.379,0.525
		l-1.292,2.46l-0.525,0.583l-0.244,0.141l-0.551,0.218l-0.25,0.132l-0.224,0.169l-0.172,0.218l-0.129,0.336l-0.095,0.436
		l-0.086,2.492l-0.155,0.936l0.017,0.319l-0.052,0.347l-0.112,0.37l-0.491,0.726l-0.224,0.233l-0.646,0.52l-0.192,0.187
		l-0.482,0.663l-0.069,0.155l-0.086,0.566l0.026,0.568l0.052,0.319l0.077,0.247l0.362,0.807l0.172,0.603l0.106,0.235l0.904,1.364
		l0.095,0.278l0.052,0.324l-0.224,1.866l0.009,0.29l0.146,0.804l0.034,0.109l0.069,0.175l0.405,0.634l0.095,0.212l0.052,0.224
		l0.655,5.992l-0.095,1.593l-0.353,0.882l0.017,0.689l0.121,0.646l1.114,3.081l0.178,0.727l0.029,0.672l-0.434,0.508l-0.629,0.497
		l-0.741,0.451l-0.715,0.563l-0.623,0.623l-0.672,1.674l-0.293,1.034l-0.233,0.474l-0.405,0.256l-0.637,0.253l-14.863,4.253
		l-0.413,0.043l-2.053-0.172l-0.293-0.066l-0.241-0.124l-0.258-0.1l-0.293-0.037l-0.293,0.069l-0.267,0.112l-1.14,0.758
		l-0.991,0.531l-0.913,0.706l-0.172,0.172l-0.164,0.258l-0.043,0.508l0.129,0.548l0.982,1.645l0.121,0.368l0.06,0.626l0.164,0.526
		l0.301,0.663l0.801,1.065l0.649,2.676l0.25,0.376l1.326,0.962l0.818,1.422l0.391,0.974l2.059,9.25L222.412,388.317z
		 M190.605,332.352l0.409-0.229l0.262-0.392l0.491-1.505l0.818,1.128l0.507,0.409l0.605,0.016l0.294-0.344l0.376-1.129l0.474-0.458
		l-0.294,1.603l-0.736,1.014l-2.388,1.586l-0.621-0.18l-0.949-0.049l-0.736-0.213v-0.703L190.605,332.352z M179.501,335.622
		l0.245-0.507l0.229-0.311l0.507-0.245l1.766-0.164l1.914-0.54l0.818,0.278l0.343,1.259l0.147,0.409l0.294,0.18l0.147,0.213
		l-0.245,0.474l-0.474,0.393l-1.227,0.425l-0.54,0.392l-1.03-0.376l-1.488-0.981l-1.112-0.196l-0.343-0.213L179.501,335.622z"/>
	<path class="st0" d="M213.588,249.101l0.065-0.012l0.314-0.536l0.49,0.565l1.602,1.419l0.077,1.031l1.025,1.556l5.699,5.978
		l0.267,0.189l0.27,0.098l0.31,0.075l0.336,0.046l0.293,0.069l0.241,0.132l0.155,0.264l0.069,0.373l-0.103,0.666l-0.026,0.537
		l0.034,0.534l0.241,0.681l0.215,0.359l0.241,0.267l0.474,0.281l0.258,0.106l0.304,0.078l0.319,0.049l2.041-0.244l1.174-0.396
		l1.542-0.356l0.319-0.04l0.319,0.017l0.287,0.086l0.281,0.121l0.287,0.075l0.301-0.011l0.258-0.115l0.198-0.172l0.973-1.309
		l0.189-0.195l0.198-0.175l0.233-0.147l0.279-0.115l0.301-0.083l1.74-0.21l3.19,0.106l0.301,0.06l0.276,0.098l0.456,0.29l0.52,0.261
		l0.276,0.103l0.594,0.152l1.077,0.388l0.379,0.198l0.158,0.1l0.144,0.146l0.115,0.155l0.086,0.172l0.284,0.778l0.991,1.338
		l0.138,0.293l0.086,0.876l-0.017,1.392l0.043,0.19l0.086,0.207l0.344,0.356l0.164,0.256l0.112,0.342l0.043,0.508l-0.026,0.388
		l-0.138,0.385l-0.207,0.327l-0.431,0.396l-0.241,0.172l-1.283,0.686l-0.224,0.221l-0.192,0.304l-0.301,0.999l-0.207,0.362
		l-0.388,0.356l-1.016,0.683l-0.181,0.078l-0.189,0.06l-0.284,0.032l-0.649-0.057l-0.276-0.095l-0.5-0.253l-0.293-0.083l-0.31-0.034
		l-0.344,0.009l-0.603,0.147l-0.967,0.52l-0.215,0.069l-0.181,0.034l-0.301,0.006l-0.319-0.029l-0.723-0.178l-0.164-0.012
		l-0.129,0.017l-0.215,0.075l-0.227,0.141l-0.23,0.224l-1.398,2.145l-0.413,0.373l-0.37,0.215l-0.327,0.031l-0.322-0.034
		l-0.276-0.08l-0.767-0.391l-0.301-0.08l-0.319-0.029l-0.336,0.043l-0.301,0.072l-0.284,0.101l-0.735,0.416l-0.215,0.477
		l-0.164,0.747l-0.121,2.383l0.086,0.405l0.632,0.402l2.3,1.103l0.215,0.155l0.19,0.19l0.149,0.224l0.741,1.579l0.189,0.982
		l0.56,1.731l0.06,0.313v0.342l-0.482,3.615l0.052,0.689l0.258,0.893l0.233,0.525l0.146,0.255l0.112,0.25l-0.017,0.431l-0.146,0.525
		l-0.465,1.082l-0.482,1.921l-0.207,0.557l-0.568,0.672l-1.614,1.252l-0.612,0.574l-0.241,0.281l-0.267,0.434l-0.391,0.864
		l-0.413,1.234l-1.051,1.286l-2.346,2.369l-0.922,1.381l-1.309,0.345l-0.83-0.052l-1.137-0.241l-0.431,0.017l-0.448,0.112
		l-1.26,0.439l-0.474,0.055l-0.379-0.034l-1.318-0.64l-1.26-0.359l-0.336-0.017l-0.922,0.241l-1.501,0.634l-0.689,0.218
		l-0.474,0.032l-0.405-0.069l-0.345-0.215l-0.235-0.198l-0.155-0.241l-0.112-0.215l-0.052-0.227l0.026-0.204l0.138-0.52l0.098-0.267
		l0.267-0.494l0.198-0.568l0.009-1.694l0.129-0.62l0.026-0.299l-0.06-0.293l-0.121-0.238l-0.287-0.264l-1.464-0.91l-1.008-0.402
		l-0.439-0.382l-0.164-0.342l0.172-0.89l0.009-0.276l-0.129-0.253l-3.026-3.055l-0.138-0.232l-0.095-0.276l-0.069-0.313
		l-0.029-1.074l-0.155-1.019l-0.189-0.548l-0.207-0.316l-0.999-1.011l-0.482-0.215l-0.405-0.06l-0.31,0.08l-0.525,0.238l-0.468,0.29
		l-0.284,0.103l-0.319,0.026l-0.655-0.069l-2.983-0.577l-0.457-0.023l-0.422,0.023l-0.322,0.063l-0.293,0.092l-0.258,0.124
		l-0.388,0.276l-0.103,0.1l-0.146,0.167l-0.129,0.218l-0.422,1.068l-0.146,0.233l-0.189,0.221l-0.189,0.189l-0.362,0.115
		l-0.485,0.069l-0.982-0.075l-0.517,0.023l-0.362,0.109l-1.665,1.022l-0.982,1.036l-0.112,0.181l-0.103,0.23l-0.224,0.896
		l-0.189,1.2l-0.069,1.803l-0.034,0.241l-0.129,0.442l-0.121,0.19l-0.121,0.112l-1.045,0.37l-0.517,0.25l-0.663,0.462l-0.56,0.5
		l-0.121,0.138l-0.129,0.207l-0.095,0.264l-0.052,0.313v0.342l0.155,0.965l-0.017,0.316l-0.069,0.302l-0.112,0.267l-0.836,1.413
		l-0.179,0.371l-0.231,0.579l-0.313-1.463l-0.033-0.491l-0.18-0.621l-0.458-0.376l-0.491-0.311l-0.393-0.392l-0.196-0.491
		l-0.115-0.507l-0.065-1.096l0.163-0.589h0.409l0.491,0.164l0.458-0.18l0.327-0.72l0.114-0.883l-0.065-1.635l0.131-0.932l0.54-1.766
		l0.131-0.703l-0.098-0.409l-0.343-0.72l2.498-3.331l1.998-1.55l0.477-0.735l0.155-1.131l-0.626-2.027l-0.057-1.022l0.247-0.505
		l0.959-1.137l0.391-0.58l0.172-0.471l1.338-5.484l0.046-0.189l0.953-1.711l1.642-1.126l2.257-0.815l1.797-0.913l1.338-1.436
		l0.896-2.383l0.219-1.279l0.12-0.697l0.459-0.488l3.566-1.786l0.953-0.867l0.798-2.237l1.602-2.082l1.441-3.561l0.327-1.137
		l0.017-1.217l0.018-1.275l0.287-1.183l0.465-1.131l0.546-0.993l1.137-1.114l0.919,0.215l0.907,0.514L213.588,249.101z"/>
	<path class="st0" d="M356.453,378.576l-1.413,1.396l-0.301,0.373l-0.646,0.551l-1.045,1.108l-0.207,0.158l-0.224,0.069l-0.5-0.003
		l-2.837-0.526l-0.698-0.014l-0.571-0.149l-0.293-0.046l-0.276,0.109l-0.215,0.224l-0.095,0.893l-0.138,0.414l-0.267,0.371
		l-2.544,1.712l-0.121,0.152l-0.052,0.184l0.138,0.29l0.818,1.077l-0.034,0.207l-0.126,0.238l-0.416,0.431l-0.439,0.549
		l-0.517,0.236l-1.533-0.215l-0.907-0.844l-0.586-0.411l-0.353-0.132l-0.594-0.112l-1.51,0.089l-0.31-0.035l-0.293-0.06
		l-1.751-0.724l-0.56-0.379l-0.5-0.439l-0.517-0.729l-0.431-0.781l-0.577-0.612l-1.855-1.223l1.484-1.608l0.939-1.367l0.319-0.316
		l0.379-0.215l0.422-0.106l0.689-0.33l0.339-0.276l1.774-2.228l0.56-0.436l0.451-0.227l0.301,0.046l2.248,0.729l0.301,0.032
		l0.336-0.075l0.511-0.198l0.431-0.112l0.956-0.135l0.302-0.149l0.25-0.181l1.51-1.631l0.293-0.043l0.276,0.043l0.405,0.241
		l0.129,0.06l0.543,0.169l0.189,0.112l0.095,0.178l-0.026,0.241l-0.534,0.916l-0.069,0.296l-0.017,0.302l0.095,0.267l0.207,0.19
		l0.942,0.58l0.93,0.428l0.422,0.126l0.844,0.115l0.792,0.017l0.468-0.046l0.379-0.086l0.715-0.264l1.614-0.316l0.724,0.425
		l0.56,0.451L356.453,378.576z"/>
	<path class="st0" d="M353.935,308.77l1.303,1.295l11.493,8.627l0.396,0.583l5.863,14.304l0.198,0.89l-0.017,4.261l0.06,0.482
		l0.181,0.5l1.774,2.113l0.456,0.801l0.017,1.444l-0.043,0.445l0.103,3.982l0.124,0.652l0.276,0.899l0.121,0.25l0.172,0.21
		l0.095,0.207l-0.095,0.253l-0.586,0.353l-7.356,2.751l-0.431,0.049l-0.336-0.049l-0.25-0.121l-1.097-0.801l-0.758-0.764
		l-0.431-0.31l-0.241-0.103l-0.258-0.052h-0.198l-0.25,0.037l-0.267,0.083l-0.474,0.215l-0.138,0.103l-0.141,0.307l-0.146,0.494
		l-0.543,4.003v0.594l0.121,0.396l2.07,1.711l0.172,0.195l0.155,0.227l0.129,0.256l0.594,2.108l0.508,1.005l0.164,0.224l0.19,0.19
		l0.261,0.112l0.301,0.037l0.319-0.052l0.284-0.098l0.267-0.121l0.93-0.577l0.241-0.1l0.224-0.009l0.198,0.147l0.167,0.212
		l0.092,0.276v0.379l-0.086,0.422l-0.212,0.549l-0.253,1.212l0.034,1.097l-1.525,2.136l-0.62,0.603l-0.129,0.086l-0.121-0.009
		l-1.751-1.229l-0.276-0.072l-0.284-0.014l-0.594,0.118l-0.267,0.103l-0.491,0.258l-0.373,0.149l-0.543,0.103l-0.655-0.029
		l-0.302-0.06l-0.319-0.017l-0.31,0.037l-0.258,0.118l-1.045,0.681l-0.379,0.359l-0.233,0.353l-0.129,0.434l0.034,0.718l0.189,0.818
		v0.396l-0.655,1.838l-1.146,2.358l-0.752,0.784l-0.818-0.988l-0.56-0.451l-0.724-0.425l-1.614,0.316l-0.715,0.264l-0.379,0.086
		l-0.468,0.046l-0.792-0.017l-0.844-0.115l-0.422-0.126l-0.93-0.428l-0.942-0.58l-0.207-0.19l-0.095-0.267l0.017-0.302l0.069-0.296
		l0.534-0.916l0.026-0.241l-0.095-0.178l-0.189-0.112l-0.543-0.169l-0.129-0.06l-0.405-0.241l-0.276-0.043l-0.293,0.043l-1.51,1.631
		l-0.25,0.181l-0.302,0.149l-0.956,0.135l-0.431,0.112l-0.511,0.198l-0.336,0.075l-0.301-0.032l-2.248-0.729l-0.301-0.046
		l-0.451,0.227l-0.56,0.436l-1.774,2.228l-0.339,0.276l-0.689,0.33l-0.422,0.106l-0.379,0.215l-0.319,0.316l-0.939,1.367
		l-1.484,1.608l-0.465-0.207l-0.939-0.546l-0.847-0.62l-0.233-0.124l-0.37-0.103l-6.5-0.976l-0.284-0.399l-0.095-0.744l2.113-6.226
		l0.172-0.233l0.284-0.06l1.008,0.009l0.319-0.06l0.267-0.089l0.241-0.204l0.149-0.336l0.069-0.6l-0.029-0.431l-0.353-1.645
		l-0.034-0.342l0.086-0.996l0.399-1.395l0.017-0.178l-0.011-0.095l-0.04-0.115l-0.77-1.014l-0.138-0.256l-0.396-1.171l-0.06-0.284
		l-0.009-0.402l0.112-0.973l-0.009-0.29l-0.06-0.259l-1.932-5.289l-0.414-2.286l0.06-0.474l0.474-1.456l0.069-0.534l-0.006-0.436
		l-0.718-3.127l-0.086-1.062l-0.362-1.668l-0.112-0.253l-0.215-0.095l-0.181-0.055l-0.241-0.04l-0.534-0.164l-0.543-0.227
		l-0.235-0.138l-0.198-0.181l-0.25-0.525l-0.155-0.244l-0.215-0.155l-0.267-0.078l-0.68,0.006l-0.698,0.072l-1.148,0.221
		l-0.146-0.006l-0.121-0.072l-0.086-0.23l-0.198-0.904l-0.224-0.557l-0.146-0.62l-0.043-1.447l-0.431-2.682l0.078-0.818l0.129-0.52
		l0.112-0.758l-0.026-0.327l-0.25-0.879l-0.112-0.258l-0.146-0.198l-0.19-0.095h-0.215l-1.665,0.322l-0.258-0.003l-0.181-0.152
		l-0.138-0.21l-0.112-0.264l-0.155-0.215l-0.215-0.12l-0.293-0.006l-0.31,0.034l-1.226,0.31l-0.655,0.083l-0.327-0.034l-0.276-0.078
		l-0.233-0.095l-0.147-0.092l-0.155-0.123l-2.75-6.035l-0.189-0.586l-0.112-0.652l-0.052-0.703l0.034-0.362l0.086-0.347l0.586-1.596
		l0.103-0.629l-0.112-2.819l0.164-1.341l0.189-0.686l0.164-0.388l0.25-1.074l0.81-1.332l0.129-0.261l0.735-2.254l0.276-0.531
		l0.741-0.686l0.525-0.322l2.268-0.91l0.19-0.146l0.146-0.241l0.155-0.551l0.129-0.247l0.336-0.149l0.637-0.052l1.243,0.08
		l0.913-0.155l0.508-0.161l2.914-1.783l0.207-0.172l0.121-0.261l0.181-0.569l0.181-0.172l0.261-0.057l0.396,0.212l0.267,0.204
		l1.352,1.364l0.172,0.224l0.12,0.279l0.224,0.904l0.267,0.333l0.485,0.276l1.085,0.316l0.517,0.227l0.362,0.212l1.278,1.404
		l0.267,0.126l0.353,0.04l0.577-0.195l0.37-0.169l0.792-0.465l0.276-0.06l0.296,0.043l0.284,0.238l0.121,0.253l-0.017,0.23
		l-0.069,0.146l-0.181,0.141l-4.889,2.98l-0.431,0.327l-0.284,0.345l-0.146,0.238l-0.112,0.278l-0.06,0.316l0.017,0.322l0.138,0.623
		l0.095,0.279l0.138,0.247l1.697,1.522l0.749,0.517l0.933,0.155l2.518,0.172l0.991,0.29l2.604-0.37l3.991-0.988l0.663-0.078
		l0.491,0.063l2.63,0.93l0.215,0.115l0.034,0.098l-0.112,0.324v0.683l-0.19,1.123l-0.12,0.388l-0.112,0.232l-0.155,0.212
		l-0.198,0.181l-0.448,0.224l-0.121,0.132l0.017,0.224l0.293,0.85l0.129,0.258l2.225,2.742l0.586,0.534l0.68,0.439l0.19,0.083
		l0.164,0.029l0.232,0.006l0.347-0.155l0.267-0.207l0.276-0.276l0.224-0.143l0.233,0.017l0.732,0.367l0.276,0.103l0.336-0.006
		l0.336-0.132l0.439-0.431l0.666-0.856l0.207-0.339l0.448-0.551l0.922-0.847l0.172-0.192l0.155-0.233l0.155-0.54l0.146-0.729
		l0.207-2.214l-0.069-0.494l-1.318-2.093l-0.103-0.273l-0.069-0.299l-0.035-0.698l0.172-0.422l0.301-0.477l1.467-1.372l0.698-0.97
		L353.935,308.77z"/>
</g>
<g id="Copyright">
	<text transform="matrix(1 0 0 1 681.6426 577.5916)" class="st1 st2"> Vemaps.com</text>
</g>
</svg>
